# xmcd
#
# Track frame offsets: 
#        150
#        45322
#        90265
#        134549
#
# Disc length: 2387 seconds
#
# Revision: 0
# Processed by: cddbd v1.5.2PL0 Copyright (c) Steve Scherf et al.
# Submitted via: ExactAudioCopy v1.0b3
#
DISCID=26095104
DTITLE=Huong Lan, Hoai Nam, Phi Nhung - Lien Khuc Que Huong 1
DYEAR=1997
DGENRE=
TTITLE0=LK1 [chacha]
TTITLE1=LK2 [rumba]
TTITLE2=LK3 [chacha]
TTITLE3=LK4 [rumba]
EXTD=
EXTT0=
EXTT1=
EXTT2=
EXTT3=
PLAYORDER=
